STARTFONT 2.1
FONT -Monotype-Plantin-Regular-R-Normal--19-140-100-100-P-101-iso8859-5
SIZE 14 100 100
FONTBOUNDINGBOX 21 21 0 -4

STARTPROPERTIES 24
FOUNDRY "Monotype"
FAMILY_NAME "Plantin"
WEIGHT_NAME "Regular"
SLANT "R"
SETWIDTH_NAME "Normal"
ADD_STYLE_NAME ""
PIXEL_SIZE 19
POINT_SIZE 140
RESOLUTION_X 100
RESOLUTION_Y 100
SPACING "P"
AVERAGE_WIDTH 101
CHARSET_REGISTRY "iso8859"
CHARSET_ENCODING "5"
FACE_NAME "Plantin ISO Latin Cyrillic"
_DEC_DEVICE_FONTNAMES "PS=plantin-latcyrillic"
COPYRIGHT "Copyright (c) 1994 Monotype Typography Ltd."
CAP_HEIGHT 15
X_HEIGHT 9
WEIGHT 10
QUAD_WIDTH 13
DEFAULT_CHAR 160
FONT_DESCENT 5
FONT_ASCENT 17
ENDPROPERTIES

CHARS 191

STARTCHAR space
ENCODING 32
SWIDTH 250 0
DWIDTH 5 0
BBX 0 0 0 0
BITMAP
ENDCHAR

STARTCHAR exclam
ENCODING 33
SWIDTH 292 0
DWIDTH 6 0
BBX 2 14 2 0
BITMAP
C0
C0
C0
C0
C0
C0
C0
C0
C0
40
40
00
C0
C0
ENDCHAR

STARTCHAR quotedbl
ENCODING 34
SWIDTH 406 0
DWIDTH 8 0
BBX 5 6 2 8
BITMAP
D8
D8
D8
D8
48
48
ENDCHAR

STARTCHAR numbersign
ENCODING 35
SWIDTH 500 0
DWIDTH 10 0
BBX 11 14 0 0
BITMAP
0880
0880
0880
0880
7FE0
1100
1100
1100
1100
FFC0
2200
2200
2200
2200
ENDCHAR

STARTCHAR dollar
ENCODING 36
SWIDTH 552 0
DWIDTH 10 0
BBX 8 16 1 -2
BITMAP
14
3E
57
D5
D4
F4
7C
3E
2F
2B
2B
AB
EA
7C
28
28
ENDCHAR

STARTCHAR percent
ENCODING 37
SWIDTH 875 0
DWIDTH 17 0
BBX 15 14 1 0
BITMAP
7010
D810
D820
D840
D840
D880
7100
011C
0236
0436
0436
0836
1036
101C
ENDCHAR

STARTCHAR ampersand
ENCODING 38
SWIDTH 750 0
DWIDTH 14 0
BBX 13 14 1 0
BITMAP
0E00
1300
3300
3300
3200
3C00
1C78
2E30
4720
C3C0
C1C0
C1E0
E270
7C38
ENDCHAR

STARTCHAR quoteright
ENCODING 39
SWIDTH 292 0
DWIDTH 6 0
BBX 3 4 1 10
BITMAP
60
60
20
C0
ENDCHAR

STARTCHAR parenleft
ENCODING 40
SWIDTH 385 0
DWIDTH 7 0
BBX 5 18 2 -4
BITMAP
08
10
20
60
60
C0
C0
C0
C0
C0
C0
C0
C0
60
60
20
10
08
ENDCHAR

STARTCHAR parenright
ENCODING 41
SWIDTH 385 0
DWIDTH 7 0
BBX 5 18 1 -4
BITMAP
80
40
20
30
30
18
18
18
18
18
18
18
18
30
30
20
40
80
ENDCHAR

STARTCHAR asterisk
ENCODING 42
SWIDTH 500 0
DWIDTH 10 0
BBX 9 8 1 6
BITMAP
0800
0800
0800
FF80
1C00
3600
2200
4100
ENDCHAR

STARTCHAR plus
ENCODING 43
SWIDTH 667 0
DWIDTH 13 0
BBX 11 11 1 1
BITMAP
0400
0400
0400
0400
0400
FFE0
0400
0400
0400
0400
0400
ENDCHAR

STARTCHAR comma
ENCODING 44
SWIDTH 292 0
DWIDTH 6 0
BBX 3 4 1 -2
BITMAP
60
60
20
C0
ENDCHAR

STARTCHAR minus
ENCODING 45
SWIDTH 667 0
DWIDTH 13 0
BBX 10 1 2 6
BITMAP
FFC0
ENDCHAR

STARTCHAR period
ENCODING 46
SWIDTH 292 0
DWIDTH 6 0
BBX 2 2 2 0
BITMAP
C0
C0
ENDCHAR

STARTCHAR slash
ENCODING 47
SWIDTH 281 0
DWIDTH 5 0
BBX 5 14 0 0
BITMAP
08
08
18
10
10
30
20
20
60
40
40
C0
80
80
ENDCHAR

STARTCHAR zero
ENCODING 48
SWIDTH 552 0
DWIDTH 10 0
BBX 9 14 1 0
BITMAP
1C00
2200
4100
C180
C180
C180
C180
C180
C180
C180
C180
4100
2200
1C00
ENDCHAR

STARTCHAR one
ENCODING 49
SWIDTH 552 0
DWIDTH 10 0
BBX 6 14 2 0
BITMAP
10
F0
30
30
30
30
30
30
30
30
30
30
30
FC
ENDCHAR

STARTCHAR two
ENCODING 50
SWIDTH 552 0
DWIDTH 10 0
BBX 8 14 1 0
BITMAP
3C
46
83
83
03
03
06
04
08
10
20
41
FF
FF
ENDCHAR

STARTCHAR three
ENCODING 51
SWIDTH 552 0
DWIDTH 10 0
BBX 9 14 0 0
BITMAP
1E00
2700
4300
0300
0200
0400
0E00
1300
0180
0180
0180
8180
4300
3E00
ENDCHAR

STARTCHAR four
ENCODING 52
SWIDTH 552 0
DWIDTH 10 0
BBX 9 14 1 0
BITMAP
0200
0600
0E00
0E00
1600
2600
2600
4600
C600
FF80
0600
0600
0600
1F80
ENDCHAR

STARTCHAR five
ENCODING 53
SWIDTH 552 0
DWIDTH 10 0
BBX 9 14 0 0
BITMAP
1F80
1F00
3000
2000
2000
3E00
4300
0180
0180
0180
0180
0180
8300
7E00
ENDCHAR

STARTCHAR six
ENCODING 54
SWIDTH 552 0
DWIDTH 10 0
BBX 8 14 1 0
BITMAP
06
18
30
60
C0
DC
E6
C3
C3
C3
C3
C3
66
3C
ENDCHAR

STARTCHAR seven
ENCODING 55
SWIDTH 552 0
DWIDTH 10 0
BBX 9 14 1 0
BITMAP
7F80
FF80
8180
0100
0300
0200
0600
0400
0C00
0800
1800
1800
3000
3000
ENDCHAR

STARTCHAR eight
ENCODING 56
SWIDTH 552 0
DWIDTH 10 0
BBX 8 14 1 0
BITMAP
3C
42
C3
C3
C3
E2
7C
3E
47
C3
C3
C3
42
3C
ENDCHAR

STARTCHAR nine
ENCODING 57
SWIDTH 552 0
DWIDTH 10 0
BBX 8 14 1 0
BITMAP
3C
66
C3
C3
C3
C3
C3
67
3B
03
06
0C
18
60
ENDCHAR

STARTCHAR colon
ENCODING 58
SWIDTH 292 0
DWIDTH 6 0
BBX 2 9 2 0
BITMAP
C0
C0
00
00
00
00
00
C0
C0
ENDCHAR

STARTCHAR semicolon
ENCODING 59
SWIDTH 292 0
DWIDTH 6 0
BBX 3 11 1 -2
BITMAP
60
60
00
00
00
00
00
60
60
20
C0
ENDCHAR

STARTCHAR less
ENCODING 60
SWIDTH 667 0
DWIDTH 13 0
BBX 10 9 2 2
BITMAP
0040
01C0
0700
3C00
E000
3C00
0700
01C0
0040
ENDCHAR

STARTCHAR equal
ENCODING 61
SWIDTH 667 0
DWIDTH 13 0
BBX 10 5 2 4
BITMAP
FFC0
0000
0000
0000
FFC0
ENDCHAR

STARTCHAR greater
ENCODING 62
SWIDTH 667 0
DWIDTH 13 0
BBX 10 9 2 2
BITMAP
8000
E000
3800
0F00
01C0
0F00
3800
E000
8000
ENDCHAR

STARTCHAR question
ENCODING 63
SWIDTH 385 0
DWIDTH 7 0
BBX 6 14 1 0
BITMAP
78
DC
0C
0C
0C
0C
1C
78
70
40
40
00
60
60
ENDCHAR

STARTCHAR at
ENCODING 64
SWIDTH 917 0
DWIDTH 17 0
BBX 16 18 1 -4
BITMAP
03E0
0C18
1004
2002
4002
40D2
4331
8631
8C61
8C62
8CE2
8D6C
4671
4001
2002
1004
0C18
03E0
ENDCHAR

STARTCHAR A
ENCODING 65
SWIDTH 719 0
DWIDTH 14 0
BBX 14 14 0 0
BITMAP
0300
0300
0300
0380
0580
0580
08C0
08C0
1FE0
1060
1060
2030
2030
F8FC
ENDCHAR

STARTCHAR B
ENCODING 66
SWIDTH 688 0
DWIDTH 13 0
BBX 11 14 1 0
BITMAP
FF80
30C0
3060
3060
3060
30C0
3F00
30C0
3060
3060
3060
3060
30C0
FF80
ENDCHAR

STARTCHAR C
ENCODING 67
SWIDTH 781 0
DWIDTH 15 0
BBX 12 14 2 0
BITMAP
0FE0
3030
6010
6000
C000
C000
C000
C000
C000
C000
6000
6010
3030
0FE0
ENDCHAR

STARTCHAR D
ENCODING 68
SWIDTH 844 0
DWIDTH 16 0
BBX 14 14 1 0
BITMAP
FFC0
3070
3018
3018
300C
300C
300C
300C
300C
300C
3018
3018
3070
FFC0
ENDCHAR

STARTCHAR E
ENCODING 69
SWIDTH 677 0
DWIDTH 13 0
BBX 11 14 1 0
BITMAP
FFC0
3060
3020
3000
3080
3080
3F80
3080
3080
3000
3000
3020
3060
FFC0
ENDCHAR

STARTCHAR F
ENCODING 70
SWIDTH 656 0
DWIDTH 12 0
BBX 11 14 1 0
BITMAP
FFC0
3060
3020
3000
3080
3080
3F80
3080
3080
3000
3000
3000
3000
FC00
ENDCHAR

STARTCHAR G
ENCODING 71
SWIDTH 833 0
DWIDTH 16 0
BBX 15 14 1 0
BITMAP
0FF0
3018
6008
6000
C000
C000
C000
C07E
C018
C018
6018
6018
3030
0FC0
ENDCHAR

STARTCHAR H
ENCODING 72
SWIDTH 854 0
DWIDTH 16 0
BBX 15 14 1 0
BITMAP
FC7E
3018
3018
3018
3018
3018
3FF8
3018
3018
3018
3018
3018
3018
FC7E
ENDCHAR

STARTCHAR I
ENCODING 73
SWIDTH 375 0
DWIDTH 7 0
BBX 6 14 1 0
BITMAP
FC
30
30
30
30
30
30
30
30
30
30
30
30
FC
ENDCHAR

STARTCHAR J
ENCODING 74
SWIDTH 354 0
DWIDTH 7 0
BBX 7 18 0 -4
BITMAP
7E
18
18
18
18
18
18
18
18
18
18
18
18
18
18
98
D8
70
ENDCHAR

STARTCHAR K
ENCODING 75
SWIDTH 802 0
DWIDTH 15 0
BBX 15 14 1 0
BITMAP
FCFC
3060
3040
3080
3100
3200
3600
3F00
3380
31C0
30E0
3070
3038
FC3E
ENDCHAR

STARTCHAR L
ENCODING 76
SWIDTH 677 0
DWIDTH 13 0
BBX 12 14 1 0
BITMAP
FC00
3000
3000
3000
3000
3000
3000
3000
3000
3000
3000
3010
3030
FFE0
ENDCHAR

STARTCHAR M
ENCODING 77
SWIDTH 1010 0
DWIDTH 19 0
BBX 19 14 0 0
BITMAP
3C03C0
0C0300
0C0300
0E0700
0E0700
160700
130B00
130B00
119180
219180
20E180
20E180
20C180
F847E0
ENDCHAR

STARTCHAR N
ENCODING 78
SWIDTH 844 0
DWIDTH 16 0
BBX 15 14 1 0
BITMAP
E03E
3008
3808
3C08
2E08
2608
2308
2388
21C8
20E8
2078
2038
2018
F808
ENDCHAR

STARTCHAR O
ENCODING 79
SWIDTH 812 0
DWIDTH 15 0
BBX 13 14 1 0
BITMAP
0F80
3060
6030
6030
C018
C018
C018
C018
C018
C018
6030
6030
3060
0F80
ENDCHAR

STARTCHAR P
ENCODING 80
SWIDTH 635 0
DWIDTH 12 0
BBX 11 14 1 0
BITMAP
FF80
30C0
3060
3060
3060
30C0
3780
3000
3000
3000
3000
3000
3000
FC00
ENDCHAR

STARTCHAR Q
ENCODING 81
SWIDTH 812 0
DWIDTH 15 0
BBX 13 18 1 -4
BITMAP
0F80
3060
6030
6030
C018
C018
C018
C018
C018
C018
6030
6030
3060
0F80
0700
0380
00E0
0038
ENDCHAR

STARTCHAR R
ENCODING 82
SWIDTH 719 0
DWIDTH 14 0
BBX 13 14 1 0
BITMAP
FF00
30C0
3060
3060
3060
3060
30C0
3F00
3300
3180
30C0
3060
3030
FC38
ENDCHAR

STARTCHAR S
ENCODING 83
SWIDTH 594 0
DWIDTH 11 0
BBX 9 14 1 0
BITMAP
3F00
6180
C080
C000
C000
F000
7C00
1F00
0780
0180
0180
8180
C300
7E00
ENDCHAR

STARTCHAR T
ENCODING 84
SWIDTH 760 0
DWIDTH 14 0
BBX 14 14 0 0
BITMAP
7FF8
C30C
8304
8304
0300
0300
0300
0300
0300
0300
0300
0300
0300
0FC0
ENDCHAR

STARTCHAR U
ENCODING 85
SWIDTH 833 0
DWIDTH 16 0
BBX 15 14 1 0
BITMAP
FC3E
3008
3008
3008
3008
3008
3008
3008
3008
3008
3008
1810
1C30
07C0
ENDCHAR

STARTCHAR V
ENCODING 86
SWIDTH 708 0
DWIDTH 13 0
BBX 13 14 0 0
BITMAP
F878
6010
6010
3020
3020
1820
1840
0C40
0C40
0680
0680
0300
0300
0100
ENDCHAR

STARTCHAR W
ENCODING 87
SWIDTH 1000 0
DWIDTH 19 0
BBX 19 14 0 0
BITMAP
F3DCE0
618840
618840
30C880
30D080
18D100
186100
0C6100
0C7200
06B200
069400
031C00
031800
010800
ENDCHAR

STARTCHAR X
ENCODING 88
SWIDTH 781 0
DWIDTH 15 0
BBX 15 14 0 0
BITMAP
FC7C
3010
1820
0C20
0640
0380
0380
0380
02C0
0460
0830
1018
200C
F83E
ENDCHAR

STARTCHAR Y
ENCODING 89
SWIDTH 719 0
DWIDTH 14 0
BBX 14 14 0 0
BITMAP
F87C
6018
3010
1820
1840
0C80
0700
0300
0300
0300
0300
0300
0300
0FC0
ENDCHAR

STARTCHAR Z
ENCODING 90
SWIDTH 677 0
DWIDTH 13 0
BBX 11 14 1 0
BITMAP
7FE0
C060
80C0
0180
0300
0300
0600
0600
0C00
1800
1800
3020
6060
FFC0
ENDCHAR

STARTCHAR bracketleft
ENCODING 91
SWIDTH 375 0
DWIDTH 7 0
BBX 4 18 2 -4
BITMAP
F0
C0
C0
C0
C0
C0
C0
C0
C0
C0
C0
C0
C0
C0
C0
C0
C0
F0
ENDCHAR

STARTCHAR backslash
ENCODING 92
SWIDTH 281 0
DWIDTH 5 0
BBX 5 14 0 0
BITMAP
80
80
C0
40
40
60
20
20
30
10
10
18
08
08
ENDCHAR

STARTCHAR bracketright
ENCODING 93
SWIDTH 375 0
DWIDTH 7 0
BBX 4 18 1 -4
BITMAP
F0
30
30
30
30
30
30
30
30
30
30
30
30
30
30
30
30
F0
ENDCHAR

STARTCHAR asciicircum
ENCODING 94
SWIDTH 469 0
DWIDTH 9 0
BBX 7 7 1 7
BITMAP
10
10
28
6C
44
82
82
ENDCHAR

STARTCHAR underscore
ENCODING 95
SWIDTH 500 0
DWIDTH 10 0
BBX 10 1 0 -4
BITMAP
FFC0
ENDCHAR

STARTCHAR quoteleft
ENCODING 96
SWIDTH 292 0
DWIDTH 6 0
BBX 3 4 2 10
BITMAP
60
80
C0
C0
ENDCHAR

STARTCHAR a
ENCODING 97
SWIDTH 479 0
DWIDTH 9 0
BBX 8 9 1 0
BITMAP
3C
46
E6
46
1E
66
C6
CE
77
ENDCHAR

STARTCHAR b
ENCODING 98
SWIDTH 562 0
DWIDTH 11 0
BBX 10 14 0 0
BITMAP
2000
E000
6000
6000
6000
6F00
7180
60C0
60C0
60C0
60C0
60C0
3180
1F00
ENDCHAR

STARTCHAR c
ENCODING 99
SWIDTH 469 0
DWIDTH 9 0
BBX 8 9 1 0
BITMAP
3E
63
C1
C0
C0
C0
C0
61
3E
ENDCHAR

STARTCHAR d
ENCODING 100
SWIDTH 573 0
DWIDTH 11 0
BBX 10 14 1 0
BITMAP
0080
0380
0180
0180
0180
3D80
6380
C180
C180
C180
C180
C180
6380
3DC0
ENDCHAR

STARTCHAR e
ENCODING 101
SWIDTH 469 0
DWIDTH 9 0
BBX 7 9 1 0
BITMAP
3C
66
C6
FE
C0
C0
C0
62
3C
ENDCHAR

STARTCHAR f
ENCODING 102
SWIDTH 312 0
DWIDTH 6 0
BBX 7 14 1 0
BITMAP
1C
26
62
60
60
F0
60
60
60
60
60
60
60
F0
ENDCHAR

STARTCHAR g
ENCODING 103
SWIDTH 500 0
DWIDTH 10 0
BBX 8 13 2 -4
BITMAP
3B
46
C6
C6
C6
44
F8
80
7C
FE
C3
C3
7E
ENDCHAR

STARTCHAR h
ENCODING 104
SWIDTH 562 0
DWIDTH 11 0
BBX 10 14 1 0
BITMAP
2000
E000
6000
6000
6000
6F00
7380
6180
6180
6180
6180
6180
6180
F3C0
ENDCHAR

STARTCHAR i
ENCODING 105
SWIDTH 271 0
DWIDTH 5 0
BBX 4 14 1 0
BITMAP
60
60
00
00
00
20
E0
60
60
60
60
60
60
F0
ENDCHAR

STARTCHAR j
ENCODING 106
SWIDTH 260 0
DWIDTH 5 0
BBX 3 18 1 -4
BITMAP
60
60
00
00
00
20
E0
60
60
60
60
60
60
60
60
60
40
80
ENDCHAR

STARTCHAR k
ENCODING 107
SWIDTH 510 0
DWIDTH 10 0
BBX 9 14 1 0
BITMAP
2000
E000
6000
6000
6000
6780
6200
6400
6800
7800
6C00
6600
6300
F380
ENDCHAR

STARTCHAR l
ENCODING 108
SWIDTH 271 0
DWIDTH 5 0
BBX 4 14 1 0
BITMAP
20
E0
60
60
60
60
60
60
60
60
60
60
60
F0
ENDCHAR

STARTCHAR m
ENCODING 109
SWIDTH 865 0
DWIDTH 15 0
BBX 14 9 1 0
BITMAP
2E70
F7B8
6318
6318
6318
6318
6318
6318
F7BC
ENDCHAR

STARTCHAR n
ENCODING 110
SWIDTH 573 0
DWIDTH 11 0
BBX 10 9 1 0
BITMAP
2F00
F380
6180
6180
6180
6180
6180
6180
F3C0
ENDCHAR

STARTCHAR o
ENCODING 111
SWIDTH 542 0
DWIDTH 10 0
BBX 8 9 1 0
BITMAP
3C
66
C3
C3
C3
C3
C3
66
3C
ENDCHAR

STARTCHAR p
ENCODING 112
SWIDTH 562 0
DWIDTH 11 0
BBX 9 13 1 -4
BITMAP
2E00
F300
6180
6180
6180
6180
6180
7300
6E00
6000
6000
6000
F000
ENDCHAR

STARTCHAR q
ENCODING 113
SWIDTH 562 0
DWIDTH 11 0
BBX 10 13 1 -4
BITMAP
3C80
6380
C180
C180
C180
C180
C180
6380
3D80
0180
0180
0180
03C0
ENDCHAR

STARTCHAR r
ENCODING 114
SWIDTH 375 0
DWIDTH 7 0
BBX 7 9 1 0
BITMAP
2C
F6
60
60
60
60
60
60
F0
ENDCHAR

STARTCHAR s
ENCODING 115
SWIDTH 396 0
DWIDTH 8 0
BBX 6 9 1 0
BITMAP
78
CC
C4
E0
78
1C
8C
CC
78
ENDCHAR

STARTCHAR t
ENCODING 116
SWIDTH 333 0
DWIDTH 6 0
BBX 5 11 1 0
BITMAP
20
60
F8
60
60
60
60
60
60
60
38
ENDCHAR

STARTCHAR u
ENCODING 117
SWIDTH 573 0
DWIDTH 11 0
BBX 10 9 1 0
BITMAP
E380
6180
6180
6180
6180
6180
6180
7380
3DC0
ENDCHAR

STARTCHAR v
ENCODING 118
SWIDTH 479 0
DWIDTH 9 0
BBX 9 9 0 0
BITMAP
F380
6100
6100
3200
3200
1C00
1C00
1800
0800
ENDCHAR

STARTCHAR w
ENCODING 119
SWIDTH 729 0
DWIDTH 14 0
BBX 14 9 0 0
BITMAP
F79C
6308
6308
3190
3390
1AE0
1CE0
1860
0840
ENDCHAR

STARTCHAR x
ENCODING 120
SWIDTH 500 0
DWIDTH 10 0
BBX 10 9 0 0
BITMAP
F3C0
6100
3200
1C00
0C00
1600
2300
4180
F3C0
ENDCHAR

STARTCHAR y
ENCODING 121
SWIDTH 479 0
DWIDTH 9 0
BBX 9 13 0 -4
BITMAP
F380
6100
6100
3200
3200
1A00
1C00
0C00
0C00
0800
1800
5000
6000
ENDCHAR

STARTCHAR z
ENCODING 122
SWIDTH 437 0
DWIDTH 8 0
BBX 7 9 1 0
BITMAP
7E
86
0C
18
30
30
60
C2
FC
ENDCHAR

STARTCHAR braceleft
ENCODING 123
SWIDTH 479 0
DWIDTH 9 0
BBX 5 18 2 -4
BITMAP
08
10
30
30
30
30
30
30
60
C0
60
30
30
30
30
30
10
08
ENDCHAR

STARTCHAR bar
ENCODING 124
SWIDTH 198 0
DWIDTH 4 0
BBX 1 18 2 -4
BITMAP
80
80
80
80
80
80
80
80
80
80
80
80
80
80
80
80
80
80
ENDCHAR

STARTCHAR braceright
ENCODING 125
SWIDTH 479 0
DWIDTH 9 0
BBX 5 18 3 -4
BITMAP
80
40
60
60
60
60
60
30
18
30
60
60
60
60
60
60
40
80
ENDCHAR

STARTCHAR asciitilde
ENCODING 126
SWIDTH 542 0
DWIDTH 10 0
BBX 10 3 0 5
BITMAP
7840
9E40
8780
ENDCHAR

STARTCHAR space
ENCODING 160
SWIDTH 250 0
DWIDTH 6 0
BBX 0 0 0 0
BITMAP
ENDCHAR

STARTCHAR afii10023
ENCODING 161
SWIDTH 677 0
DWIDTH 13 0
BBX 11 17 1 0
BITMAP
1980
1980
0000
FFC0
3060
3020
3000
3080
3080
3F80
3080
3080
3000
3000
3020
3060
FFC0
ENDCHAR

STARTCHAR afii10051
ENCODING 162
SWIDTH 823 0
DWIDTH 16 0
BBX 15 14 0 0
BITMAP
7FE0
C630
8610
0600
0600
06F8
070C
0606
0606
0606
0606
0606
0624
1F98
ENDCHAR

STARTCHAR afii10052
ENCODING 163
SWIDTH 635 0
DWIDTH 12 0
BBX 11 17 1 0
BITMAP
0300
0600
0000
FFE0
3060
3020
3000
3000
3000
3000
3000
3000
3000
3000
3000
3000
FC00
ENDCHAR

STARTCHAR afii10053
ENCODING 164
SWIDTH 729 0
DWIDTH 14 0
BBX 12 14 1 0
BITMAP
0FC0
3830
6010
6000
C000
C000
FF80
C000
C000
C000
6000
6010
3830
0FC0
ENDCHAR

STARTCHAR afii10054
ENCODING 165
SWIDTH 594 0
DWIDTH 11 0
BBX 9 14 1 0
BITMAP
3F00
6180
C080
C000
C000
F000
7C00
1F00
0780
0180
0180
8180
C300
7E00
ENDCHAR

STARTCHAR afii10055
ENCODING 166
SWIDTH 375 0
DWIDTH 7 0
BBX 6 14 1 0
BITMAP
FC
30
30
30
30
30
30
30
30
30
30
30
30
FC
ENDCHAR

STARTCHAR afii10056
ENCODING 167
SWIDTH 375 0
DWIDTH 7 0
BBX 6 17 1 0
BITMAP
CC
CC
00
FC
30
30
30
30
30
30
30
30
30
30
30
30
FC
ENDCHAR

STARTCHAR afii10057
ENCODING 168
SWIDTH 354 0
DWIDTH 7 0
BBX 7 18 0 -4
BITMAP
7E
18
18
18
18
18
18
18
18
18
18
18
18
18
18
98
D8
70
ENDCHAR

STARTCHAR afii10058
ENCODING 169
SWIDTH 986 0
DWIDTH 19 0
BBX 18 14 0 0
BITMAP
3FF800
086000
086000
086000
086000
086000
087F00
086180
0860C0
0860C0
0860C0
8860C0
C86180
71FF00
ENDCHAR

STARTCHAR afii10059
ENCODING 170
SWIDTH 1015 0
DWIDTH 20 0
BBX 18 14 1 0
BITMAP
FDF800
306000
306000
306000
306000
306000
3FFF00
306180
3060C0
3060C0
3060C0
3060C0
306180
FDFF00
ENDCHAR

STARTCHAR afii10060
ENCODING 171
SWIDTH 823 0
DWIDTH 16 0
BBX 16 14 0 0
BITMAP
7FE0
C630
8610
0600
0600
06F0
0708
060C
060C
060C
060C
060C
060C
1FBF
ENDCHAR

STARTCHAR afii10061
ENCODING 172
SWIDTH 750 0
DWIDTH 14 0
BBX 14 17 1 0
BITMAP
00C0
0180
0000
FC38
3068
3040
3080
3080
3100
3F00
3700
3380
31C0
30E0
3070
3038
FC3C
ENDCHAR

STARTCHAR hyphen
ENCODING 173
SWIDTH 365 0
DWIDTH 7 0
BBX 5 1 1 4
BITMAP
F8
ENDCHAR

STARTCHAR afii10062
ENCODING 174
SWIDTH 750 0
DWIDTH 14 0
BBX 15 17 0 0
BITMAP
0660
03C0
0000
FC3E
3008
1808
1808
0C10
0C10
0610
0320
0320
01C0
0080
0080
1900
0E00
ENDCHAR

STARTCHAR afii10145
ENCODING 175
SWIDTH 854 0
DWIDTH 16 0
BBX 15 16 1 -2
BITMAP
FC7E
3018
3018
3018
3018
3018
3018
3018
3018
3018
3018
3018
3018
FFFE
0300
0300
ENDCHAR

STARTCHAR afii10017
ENCODING 176
SWIDTH 719 0
DWIDTH 14 0
BBX 14 14 0 0
BITMAP
0300
0300
0300
0380
0580
0580
08C0
08C0
1FE0
1060
1060
2030
2030
F8FC
ENDCHAR

STARTCHAR afii10018
ENCODING 177
SWIDTH 656 0
DWIDTH 13 0
BBX 11 14 1 0
BITMAP
FFC0
30C0
3040
3000
3000
3000
3F80
30C0
3060
3060
3060
3060
30C0
FF80
ENDCHAR

STARTCHAR afii10019
ENCODING 178
SWIDTH 688 0
DWIDTH 13 0
BBX 11 14 1 0
BITMAP
FF80
30C0
3060
3060
3060
30C0
3F00
30C0
3060
3060
3060
3060
30C0
FF80
ENDCHAR

STARTCHAR afii10020
ENCODING 179
SWIDTH 635 0
DWIDTH 12 0
BBX 11 14 1 0
BITMAP
FFE0
3060
3020
3000
3000
3000
3000
3000
3000
3000
3000
3000
3000
FC00
ENDCHAR

STARTCHAR afii10021
ENCODING 180
SWIDTH 792 0
DWIDTH 14 0
BBX 14 16 0 -2
BITMAP
3FFC
0830
0830
0830
0830
0830
0830
1030
1030
1030
1030
2030
2030
FFFC
C00C
8004
ENDCHAR

STARTCHAR afii10022
ENCODING 181
SWIDTH 677 0
DWIDTH 13 0
BBX 11 14 1 0
BITMAP
FFC0
3060
3020
3000
3080
3080
3F80
3080
3080
3000
3000
3020
3060
FFC0
ENDCHAR

STARTCHAR afii10024
ENCODING 182
SWIDTH 1031 0
DWIDTH 20 0
BBX 18 14 1 0
BITMAP
E3F1C0
B0C340
10C200
10C200
08C400
08C400
07F800
06D800
0CCC00
18C600
18C600
30C300
60C180
C3F0C0
ENDCHAR

STARTCHAR afii10025
ENCODING 183
SWIDTH 667 0
DWIDTH 12 0
BBX 10 14 1 0
BITMAP
3E00
C180
80C0
00C0
00C0
0180
1F00
0180
00C0
00C0
00C0
80C0
C180
3E00
ENDCHAR

STARTCHAR afii10026
ENCODING 184
SWIDTH 854 0
DWIDTH 16 0
BBX 15 14 1 0
BITMAP
FC7E
3018
3018
3018
3038
3058
3098
3118
3218
3418
3818
3018
3018
FC7E
ENDCHAR

STARTCHAR afii10027
ENCODING 185
SWIDTH 854 0
DWIDTH 16 0
BBX 15 17 1 0
BITMAP
0660
03C0
0000
FC7E
3018
3018
3018
3038
3058
3098
3118
3218
3418
3818
3018
3018
FC7E
ENDCHAR

STARTCHAR afii10028
ENCODING 186
SWIDTH 750 0
DWIDTH 14 0
BBX 14 14 1 0
BITMAP
FC38
3068
3040
3080
3080
3100
3F00
3700
3380
31C0
30E0
3070
3038
FC3C
ENDCHAR

STARTCHAR afii10029
ENCODING 187
SWIDTH 760 0
DWIDTH 14 0
BBX 14 14 0 0
BITMAP
3FFC
0830
0830
0830
0830
0830
0830
0830
0830
0830
0830
8830
D030
60FC
ENDCHAR

STARTCHAR afii10030
ENCODING 188
SWIDTH 1010 0
DWIDTH 19 0
BBX 19 14 0 0
BITMAP
3C03C0
0C0300
0C0300
0E0700
0E0700
160700
130B00
130B00
119180
219180
20E180
20E180
20C180
F847E0
ENDCHAR

STARTCHAR afii10031
ENCODING 189
SWIDTH 854 0
DWIDTH 16 0
BBX 15 14 1 0
BITMAP
FC7E
3018
3018
3018
3018
3018
3FF8
3018
3018
3018
3018
3018
3018
FC7E
ENDCHAR

STARTCHAR afii10032
ENCODING 190
SWIDTH 813 0
DWIDTH 15 0
BBX 13 14 1 0
BITMAP
0F80
3060
6030
6030
C018
C018
C018
C018
C018
C018
6030
6030
3060
0F80
ENDCHAR

STARTCHAR afii10033
ENCODING 191
SWIDTH 854 0
DWIDTH 16 0
BBX 15 14 1 0
BITMAP
FFFE
3018
3018
3018
3018
3018
3018
3018
3018
3018
3018
3018
3018
FC7E
ENDCHAR

STARTCHAR afii10034
ENCODING 192
SWIDTH 635 0
DWIDTH 12 0
BBX 11 14 1 0
BITMAP
FF80
30C0
3060
3060
3060
30C0
3780
3000
3000
3000
3000
3000
3000
FC00
ENDCHAR

STARTCHAR afii10035
ENCODING 193
SWIDTH 781 0
DWIDTH 15 0
BBX 12 14 2 0
BITMAP
0FE0
3030
6010
6000
C000
C000
C000
C000
C000
C000
6000
6010
3030
0FE0
ENDCHAR

STARTCHAR afii10036
ENCODING 194
SWIDTH 760 0
DWIDTH 14 0
BBX 14 14 0 0
BITMAP
7FF8
C30C
8304
8304
0300
0300
0300
0300
0300
0300
0300
0300
0300
0FC0
ENDCHAR

STARTCHAR afii10037
ENCODING 195
SWIDTH 750 0
DWIDTH 14 0
BBX 15 14 0 0
BITMAP
FC3E
3008
1808
1808
0C10
0C10
0610
0320
0320
01C0
0080
0080
1900
0E00
ENDCHAR

STARTCHAR afii10038
ENCODING 196
SWIDTH 974 0
DWIDTH 18 0
BBX 18 14 0 0
BITMAP
03F000
00C000
1FFE00
70C380
C0C0C0
C0C0C0
C0C0C0
C0C0C0
C0C0C0
C0C0C0
70C380
1FFE00
00C000
03F000
ENDCHAR

STARTCHAR afii10039
ENCODING 197
SWIDTH 781 0
DWIDTH 15 0
BBX 15 14 0 0
BITMAP
FC7C
3010
1820
0C20
0640
0380
0380
0380
02C0
0460
0830
1018
200C
F83E
ENDCHAR

STARTCHAR afii10040
ENCODING 198
SWIDTH 854 0
DWIDTH 16 0
BBX 15 16 1 -2
BITMAP
FC7E
3018
3018
3018
3018
3018
3018
3018
3018
3018
3018
3018
3018
FFFE
0006
0002
ENDCHAR

STARTCHAR afii10041
ENCODING 199
SWIDTH 854 0
DWIDTH 16 0
BBX 15 14 1 0
BITMAP
FC7E
3018
3018
3018
3018
3018
3018
3038
1858
0F98
0018
0018
0018
007E
ENDCHAR

STARTCHAR afii10042
ENCODING 200
SWIDTH 1052 0
DWIDTH 20 0
BBX 20 14 0 0
BITMAP
FCF3F0
3060C0
3060C0
3060C0
3060C0
3060C0
3060C0
3060C0
3060C0
3060C0
3060C0
3060C0
3060C0
FFFFF0
ENDCHAR

STARTCHAR afii10043
ENCODING 201
SWIDTH 1052 0
DWIDTH 20 0
BBX 20 16 0 -2
BITMAP
FCF3F0
3060C0
3060C0
3060C0
3060C0
3060C0
3060C0
3060C0
3060C0
3060C0
3060C0
3060C0
3060C0
FFFFF0
000030
000010
ENDCHAR

STARTCHAR afii10044
ENCODING 202
SWIDTH 775 0
DWIDTH 15 0
BBX 14 14 0 0
BITMAP
FF80
C600
8600
0600
0600
0600
07F0
0618
060C
060C
060C
060C
0618
1FF0
ENDCHAR

STARTCHAR afii10045
ENCODING 203
SWIDTH 1031 0
DWIDTH 19 0
BBX 18 14 1 0
BITMAP
FC0FC0
300300
300300
300300
300300
300300
3F8300
30C300
306300
306300
306300
306300
30C300
FF8FC0
ENDCHAR

STARTCHAR afii10046
ENCODING 204
SWIDTH 632 0
DWIDTH 13 0
BBX 11 14 1 0
BITMAP
FC00
3000
3000
3000
3000
3000
3F80
30C0
3060
3060
3060
3060
30C0
FF80
ENDCHAR

STARTCHAR afii10047
ENCODING 205
SWIDTH 719 0
DWIDTH 14 0
BBX 12 14 1 0
BITMAP
3F00
C1C0
8060
0060
0030
0030
1FF0
0030
0030
0030
0060
8060
C1C0
3F00
ENDCHAR

STARTCHAR afii10048
ENCODING 206
SWIDTH 1177 0
DWIDTH 22 0
BBX 20 14 1 0
BITMAP
FC1F00
3060C0
30C060
30C060
318030
318030
3F8030
318030
318030
318030
30C060
30C060
3060C0
FC1F00
ENDCHAR

STARTCHAR afii10049
ENCODING 207
SWIDTH 740 0
DWIDTH 13 0
BBX 13 14 0 0
BITMAP
07F8
1860
3060
3060
3060
3060
1860
07E0
0660
0C60
1860
3060
6060
E1F8
ENDCHAR

STARTCHAR afii10065
ENCODING 208
SWIDTH 479 0
DWIDTH 9 0
BBX 8 9 1 0
BITMAP
3C
46
E6
46
1E
66
C6
CE
77
ENDCHAR

STARTCHAR afii10066
ENCODING 209
SWIDTH 542 0
DWIDTH 11 0
BBX 9 14 1 0
BITMAP
0080
1F00
3800
4000
C000
DC00
E300
C180
C180
C180
C180
C180
6300
3E00
ENDCHAR

STARTCHAR afii10067
ENCODING 210
SWIDTH 552 0
DWIDTH 11 0
BBX 9 9 1 0
BITMAP
FF00
6180
6180
6100
7E00
6180
6180
6180
FF00
ENDCHAR

STARTCHAR afii10068
ENCODING 211
SWIDTH 438 0
DWIDTH 8 0
BBX 8 9 1 0
BITMAP
FF
63
61
60
60
60
60
60
F0
ENDCHAR

STARTCHAR afii10069
ENCODING 212
SWIDTH 542 0
DWIDTH 10 0
BBX 10 11 0 -2
BITMAP
7FC0
2180
2180
2180
2180
2180
4180
4180
FFC0
C0C0
8040
ENDCHAR

STARTCHAR afii10070
ENCODING 213
SWIDTH 469 0
DWIDTH 9 0
BBX 7 9 1 0
BITMAP
3C
66
C6
FE
C0
C0
C0
62
3C
ENDCHAR

STARTCHAR afii10072
ENCODING 214
SWIDTH 854 0
DWIDTH 16 0
BBX 16 9 0 0
BITMAP
C3C3
A185
1188
1188
0FF0
1998
318C
6186
E3C7
ENDCHAR

STARTCHAR afii10073
ENCODING 215
SWIDTH 469 0
DWIDTH 10 0
BBX 8 9 1 0
BITMAP
7C
C6
83
03
1E
03
83
C6
7C
ENDCHAR

STARTCHAR afii10074
ENCODING 216
SWIDTH 583 0
DWIDTH 11 0
BBX 10 9 1 0
BITMAP
F3C0
6180
6180
6380
6580
6980
7180
6180
F3C0
ENDCHAR

STARTCHAR afii10075
ENCODING 217
SWIDTH 583 0
DWIDTH 11 0
BBX 10 12 1 0
BITMAP
3300
1E00
0000
F3C0
6180
6180
6380
6580
6980
7180
6180
F3C0
ENDCHAR

STARTCHAR afii10076
ENCODING 218
SWIDTH 573 0
DWIDTH 12 0
BBX 10 9 1 0
BITMAP
F0C0
6140
6100
6200
7C00
6600
6300
6180
F1C0
ENDCHAR

STARTCHAR afii10077
ENCODING 219
SWIDTH 573 0
DWIDTH 10 0
BBX 10 9 0 0
BITMAP
3FC0
1180
1180
1180
1180
1180
1180
9180
63C0
ENDCHAR

STARTCHAR afii10078
ENCODING 220
SWIDTH 625 0
DWIDTH 12 0
BBX 12 9 0 0
BITMAP
70E0
30C0
31C0
39C0
39C0
4E60
4E60
4460
E4F0
ENDCHAR

STARTCHAR afii10079
ENCODING 221
SWIDTH 563 0
DWIDTH 11 0
BBX 10 9 1 0
BITMAP
F3C0
6180
6180
6180
7F80
6180
6180
6180
F3C0
ENDCHAR

STARTCHAR afii10080
ENCODING 222
SWIDTH 542 0
DWIDTH 10 0
BBX 8 9 1 0
BITMAP
3C
66
C3
C3
C3
C3
C3
66
3C
ENDCHAR

STARTCHAR afii10081
ENCODING 223
SWIDTH 573 0
DWIDTH 11 0
BBX 10 9 1 0
BITMAP
FFC0
6180
6180
6180
6180
6180
6180
6180
F3C0
ENDCHAR

STARTCHAR afii10082
ENCODING 224
SWIDTH 562 0
DWIDTH 11 0
BBX 9 13 1 -4
BITMAP
2E00
F300
6180
6180
6180
6180
6180
7300
6E00
6000
6000
6000
F000
ENDCHAR

STARTCHAR afii10083
ENCODING 225
SWIDTH 469 0
DWIDTH 9 0
BBX 8 9 1 0
BITMAP
3E
63
C1
C0
C0
C0
C0
61
3E
ENDCHAR

STARTCHAR afii10084
ENCODING 226
SWIDTH 458 0
DWIDTH 8 0
BBX 8 9 0 0
BITMAP
FF
99
99
18
18
18
18
18
3C
ENDCHAR

STARTCHAR afii10085
ENCODING 227
SWIDTH 479 0
DWIDTH 9 0
BBX 9 13 0 -4
BITMAP
F380
6100
6100
3200
3200
1A00
1C00
0C00
0C00
0800
1800
5000
6000
ENDCHAR

STARTCHAR afii10086
ENCODING 228
SWIDTH 750 0
DWIDTH 14 0
BBX 14 18 0 -4
BITMAP
0100
0700
0300
0300
0300
3B70
6798
C30C
C30C
C30C
C30C
C30C
6798
3B70
0300
0300
0300
0780
ENDCHAR

STARTCHAR afii10087
ENCODING 229
SWIDTH 500 0
DWIDTH 10 0
BBX 10 9 0 0
BITMAP
F3C0
6100
3200
1C00
0C00
1600
2300
4180
F3C0
ENDCHAR

STARTCHAR afii10088
ENCODING 230
SWIDTH 573 0
DWIDTH 11 0
BBX 10 11 1 -2
BITMAP
F3C0
6180
6180
6180
6180
6180
6180
6180
FFC0
00C0
0040
ENDCHAR

STARTCHAR afii10089
ENCODING 231
SWIDTH 573 0
DWIDTH 11 0
BBX 10 9 1 0
BITMAP
F3C0
6180
6180
6180
6380
3D80
0180
0180
03C0
ENDCHAR

STARTCHAR afii10090
ENCODING 232
SWIDTH 854 0
DWIDTH 16 0
BBX 16 9 0 0
BITMAP
F3CF
6186
6186
6186
6186
6186
6186
6186
FFFF
ENDCHAR

STARTCHAR afii10091
ENCODING 233
SWIDTH 854 0
DWIDTH 16 0
BBX 16 11 0 -2
BITMAP
F3CF
6186
6186
6186
6186
6186
6186
6186
FFFF
0003
0001
ENDCHAR

STARTCHAR afii10092
ENCODING 234
SWIDTH 638 0
DWIDTH 12 0
BBX 11 9 0 0
BITMAP
FC00
D800
9800
1800
1FC0
1860
1860
1860
3FC0
ENDCHAR

STARTCHAR afii10093
ENCODING 235
SWIDTH 792 0
DWIDTH 15 0
BBX 14 9 1 0
BITMAP
F03C
6018
6018
6018
7F18
6198
6198
6198
FF3C
ENDCHAR

STARTCHAR afii10094
ENCODING 236
SWIDTH 485 0
DWIDTH 11 0
BBX 9 9 1 0
BITMAP
F000
6000
6000
6000
7F00
6180
6180
6180
FF00
ENDCHAR

STARTCHAR afii10095
ENCODING 237
SWIDTH 490 0
DWIDTH 9 0
BBX 7 9 1 0
BITMAP
78
84
06
06
3E
06
06
84
78
ENDCHAR

STARTCHAR afii10096
ENCODING 238
SWIDTH 813 0
DWIDTH 15 0
BBX 13 9 1 0
BITMAP
F1E0
6330
6618
6618
7E18
6618
6618
6330
F1E0
ENDCHAR

STARTCHAR afii10097
ENCODING 239
SWIDTH 563 0
DWIDTH 10 0
BBX 10 9 0 0
BITMAP
3FC0
6180
6180
6180
3F80
1980
3180
6180
C3C0
ENDCHAR

STARTCHAR afii61352
ENCODING 240
SWIDTH 1031 0
DWIDTH 19 0
BBX 18 14 0 0
BITMAP
781800
183400
182000
1C2000
1C2380
1626C0
132440
132440
11A440
10E6C0
10E380
106000
D06000
6027C0
ENDCHAR

STARTCHAR afii10071
ENCODING 241
SWIDTH 469 0
DWIDTH 9 0
BBX 7 12 1 0
BITMAP
66
66
00
3C
66
C6
FE
C0
C0
C0
62
3C
ENDCHAR

STARTCHAR afii10099
ENCODING 242
SWIDTH 513 0
DWIDTH 11 0
BBX 9 18 1 -4
BITMAP
2000
E000
6000
FF00
6000
6F00
7380
6180
6180
6180
6180
6180
6180
F180
0180
0180
0100
0200
ENDCHAR

STARTCHAR afii10100
ENCODING 243
SWIDTH 458 0
DWIDTH 9 0
BBX 8 12 1 0
BITMAP
0C
18
00
FF
63
61
61
60
60
60
60
F0
ENDCHAR

STARTCHAR afii10101
ENCODING 244
SWIDTH 490 0
DWIDTH 9 0
BBX 7 9 1 0
BITMAP
3C
42
C0
C0
F8
C0
C0
42
3C
ENDCHAR

STARTCHAR afii10102
ENCODING 245
SWIDTH 396 0
DWIDTH 8 0
BBX 6 9 1 0
BITMAP
78
CC
C4
E0
78
1C
8C
CC
78
ENDCHAR

STARTCHAR afii10103
ENCODING 246
SWIDTH 271 0
DWIDTH 5 0
BBX 4 14 1 0
BITMAP
60
60
00
00
00
20
E0
60
60
60
60
60
60
F0
ENDCHAR

STARTCHAR afii10104
ENCODING 247
SWIDTH 271 0
DWIDTH 5 0
BBX 6 12 0 0
BITMAP
CC
CC
00
10
70
30
30
30
30
30
30
78
ENDCHAR

STARTCHAR afii10105
ENCODING 248
SWIDTH 260 0
DWIDTH 5 0
BBX 3 18 1 -4
BITMAP
60
60
00
00
00
20
E0
60
60
60
60
60
60
60
60
60
40
80
ENDCHAR

STARTCHAR afii10106
ENCODING 249
SWIDTH 831 0
DWIDTH 16 0
BBX 15 9 0 0
BITMAP
3FC0
1180
1180
1180
11FC
1186
1186
9186
63FC
ENDCHAR

STARTCHAR afii10107
ENCODING 250
SWIDTH 814 0
DWIDTH 16 0
BBX 14 9 1 0
BITMAP
F780
6300
6300
6300
7FF8
630C
630C
630C
F7F8
ENDCHAR

STARTCHAR afii10108
ENCODING 251
SWIDTH 573 0
DWIDTH 11 0
BBX 10 14 1 0
BITMAP
2000
E000
6000
FF00
6000
6F00
7380
6180
6180
6180
6180
6180
6180
F3C0
ENDCHAR

STARTCHAR afii10109
ENCODING 252
SWIDTH 573 0
DWIDTH 12 0
BBX 10 12 1 0
BITMAP
0600
0C00
0000
F0C0
6140
6100
6200
7C00
6600
6300
6180
F1C0
ENDCHAR

STARTCHAR section
ENCODING 253
SWIDTH 427 0
DWIDTH 7 0
BBX 7 18 0 -4
BITMAP
3C
46
42
A0
A0
90
50
48
68
24
14
14
12
0A
0A
84
C4
78
ENDCHAR

STARTCHAR afii10110
ENCODING 254
SWIDTH 479 0
DWIDTH 9 0
BBX 9 16 0 -4
BITMAP
3300
1E00
0000
F380
6100
6100
3200
3200
1A00
1C00
0C00
0C00
0800
1800
5000
6000
ENDCHAR

STARTCHAR afii10193
ENCODING 255
SWIDTH 573 0
DWIDTH 11 0
BBX 10 11 1 -2
BITMAP
F3C0
6180
6180
6180
6180
6180
6180
6180
FFC0
0C00
0C00
ENDCHAR
ENDFONT
